REM DIRINDEX 1\5,1\2\6,1\2\7,1\3\8,1\3\9,1\4\10,1\4\11,1\4\12
REM DIRNAME cjc026,folder01,folder02,folder03,folder04,folder05,folder06,folder07,folder08,folder09,folder10,folder11
TITLE ""
FILE "EJE_DB3000_5th_4B_40.mp3" MP3
  TRACK 01 AUDIO
    TITLE "0:"
    INDEX 01 00:00:00
  TRACK 02 AUDIO
    TITLE "10:cjc026_09732"
    INDEX 01 00:00:08
  TRACK 03 AUDIO
    TITLE "0:"
    INDEX 01 00:01:27
  TRACK 04 AUDIO
    TITLE "11:cjc026_09733"
    INDEX 01 00:01:65
  TRACK 05 AUDIO
    TITLE "0:"
    INDEX 01 00:03:34
  TRACK 06 AUDIO
    TITLE "12:cjc026_09734"
    INDEX 01 00:03:69
  TRACK 07 AUDIO
    TITLE "0:"
    INDEX 01 00:05:16
  TRACK 08 AUDIO
    TITLE "10:cjc026_09735"
    INDEX 01 00:05:51
  TRACK 09 AUDIO
    TITLE "0:"
    INDEX 01 00:07:01
  TRACK 10 AUDIO
    TITLE "11:cjc026_09736"
    INDEX 01 00:07:36
  TRACK 11 AUDIO
    TITLE "0:"
    INDEX 01 00:09:10
  TRACK 12 AUDIO
    TITLE "12:cjc026_09737"
    INDEX 01 00:09:48
  TRACK 13 AUDIO
    TITLE "0:"
    INDEX 01 00:10:73
  TRACK 14 AUDIO
    TITLE "10:cjc026_09738"
    INDEX 01 00:11:33
  TRACK 15 AUDIO
    TITLE "0:"
    INDEX 01 00:12:58
  TRACK 16 AUDIO
    TITLE "11:cjc026_09739"
    INDEX 01 00:13:21
  TRACK 17 AUDIO
    TITLE "0:"
    INDEX 01 00:14:70
  TRACK 18 AUDIO
    TITLE "12:cjc026_09740"
    INDEX 01 00:15:30
  TRACK 19 AUDIO
    TITLE "0:"
    INDEX 01 00:16:58
  TRACK 20 AUDIO
    TITLE "10:cjc026_09741"
    INDEX 01 00:17:18
  TRACK 21 AUDIO
    TITLE "0:"
    INDEX 01 00:18:37
  TRACK 22 AUDIO
    TITLE "11:cjc026_09742"
    INDEX 01 00:18:72
  TRACK 23 AUDIO
    TITLE "0:"
    INDEX 01 00:20:03
  TRACK 24 AUDIO
    TITLE "12:cjc026_09743"
    INDEX 01 00:20:41
  TRACK 25 AUDIO
    TITLE "0:"
    INDEX 01 00:21:61
  TRACK 26 AUDIO
    TITLE "10:cjc026_09744"
    INDEX 01 00:22:21
  TRACK 27 AUDIO
    TITLE "0:"
    INDEX 01 00:23:35
  TRACK 28 AUDIO
    TITLE "11:cjc026_09745"
    INDEX 01 00:23:70
  TRACK 29 AUDIO
    TITLE "0:"
    INDEX 01 00:25:23
  TRACK 30 AUDIO
    TITLE "12:cjc026_09746"
    INDEX 01 00:25:60
  TRACK 31 AUDIO
    TITLE "0:"
    INDEX 01 00:27:00
  TRACK 32 AUDIO
    TITLE "10:cjc026_09747"
    INDEX 01 00:27:35
  TRACK 33 AUDIO
    TITLE "0:"
    INDEX 01 00:28:54
  TRACK 34 AUDIO
    TITLE "11:cjc026_09748"
    INDEX 01 00:29:14
  TRACK 35 AUDIO
    TITLE "0:"
    INDEX 01 00:30:53
  TRACK 36 AUDIO
    TITLE "12:cjc026_09749"
    INDEX 01 00:31:13
  TRACK 37 AUDIO
    TITLE "0:"
    INDEX 01 00:32:32
  TRACK 38 AUDIO
    TITLE "10:cjc026_09750"
    INDEX 01 00:32:67
  TRACK 39 AUDIO
    TITLE "0:"
    INDEX 01 00:34:15
  TRACK 40 AUDIO
    TITLE "11:cjc026_09751"
    INDEX 01 00:34:52
  TRACK 41 AUDIO
    TITLE "0:"
    INDEX 01 00:36:10
  TRACK 42 AUDIO
    TITLE "12:cjc026_09752"
    INDEX 01 00:36:45
  TRACK 43 AUDIO
    TITLE "0:"
    INDEX 01 00:37:70
  TRACK 44 AUDIO
    TITLE "10:cjc026_09753"
    INDEX 01 00:38:30
  TRACK 45 AUDIO
    TITLE "0:"
    INDEX 01 00:39:45
  TRACK 46 AUDIO
    TITLE "11:cjc026_09754"
    INDEX 01 00:40:05
  TRACK 47 AUDIO
    TITLE "0:"
    INDEX 01 00:41:30
  TRACK 48 AUDIO
    TITLE "12:cjc026_09755"
    INDEX 01 00:41:67
  TRACK 49 AUDIO
    TITLE "0:"
    INDEX 01 00:43:04
  TRACK 50 AUDIO
    TITLE "10:cjc026_09756"
    INDEX 01 00:43:42
  TRACK 51 AUDIO
    TITLE "0:"
    INDEX 01 00:44:58
  TRACK 52 AUDIO
    TITLE "11:cjc026_09757"
    INDEX 01 00:45:21
  TRACK 53 AUDIO
    TITLE "0:"
    INDEX 01 00:46:51
  TRACK 54 AUDIO
    TITLE "12:cjc026_09758"
    INDEX 01 00:47:12
  TRACK 55 AUDIO
    TITLE "0:"
    INDEX 01 00:48:26
  TRACK 56 AUDIO
    TITLE "10:cjc026_09759"
    INDEX 01 00:48:63
  TRACK 57 AUDIO
    TITLE "0:"
    INDEX 01 00:50:11
  TRACK 58 AUDIO
    TITLE "11:cjc026_09760"
    INDEX 01 00:50:46
  TRACK 59 AUDIO
    TITLE "0:"
    INDEX 01 00:51:68
  TRACK 60 AUDIO
    TITLE "12:cjc026_09761"
    INDEX 01 00:52:31
  TRACK 61 AUDIO
    TITLE "0:"
    INDEX 01 00:53:50
  TRACK 62 AUDIO
    TITLE "10:cjc026_09762"
    INDEX 01 00:54:13
  TRACK 63 AUDIO
    TITLE "0:"
    INDEX 01 00:55:27
  TRACK 64 AUDIO
    TITLE "11:cjc026_09763"
    INDEX 01 00:55:62
  TRACK 65 AUDIO
    TITLE "0:"
    INDEX 01 00:57:09
  TRACK 66 AUDIO
    TITLE "12:cjc026_09764"
    INDEX 01 00:57:47
  TRACK 67 AUDIO
    TITLE "0:"
    INDEX 01 00:58:61
  TRACK 68 AUDIO
    TITLE "10:cjc026_09765"
    INDEX 01 00:59:21
  TRACK 69 AUDIO
    TITLE "0:"
    INDEX 01 01:00:38
  TRACK 70 AUDIO
    TITLE "11:cjc026_09766"
    INDEX 01 01:00:73
  TRACK 71 AUDIO
    TITLE "0:"
    INDEX 01 01:02:21
  TRACK 72 AUDIO
    TITLE "12:cjc026_09767"
    INDEX 01 01:02:56
  TRACK 73 AUDIO
    TITLE "0:"
    INDEX 01 01:03:72
